# xmcd
#
# Track frame offsets:
#	150
#	12463
#	23912
#	41006
#	53720
#	73495
#	85812
#	98057
#	112947
#	124954
#	137101
#	150125
#	166673
#	179566
#
# Disc length: 2612 seconds
#
# Revision: 0
# Processed by: cddbd v1.5.1PL2 Copyright (c) Steve Scherf et al.
# Submitted via: audiograbber 1.83.01
#
DISCID=b40a320e
DTITLE=Williams and Clark Expedition - Williams and Clark Expedition
DYEAR=2006
DGENRE=Bluegrass
TTITLE0=High Lonesome
TTITLE1=Right All Along (with Rhonda Vincent) 
TTITLE2=Forever Ain't That Long Anymore
TTITLE3=One Legged Gypsy 
TTITLE4=Life's Railway to Heaven (with Marty Raybon) 
TTITLE5=Blue Road
TTITLE6=What Have You Done For Him
TTITLE7=Heartache Train
TTITLE8=Cherry Creek
TTITLE9=You Can Run
TTITLE10=Waitin' On the Preacher
TTITLE11=I Played The Mandolin
TTITLE12=Midnight Flyer 
TTITLE13=Bonus Comedy Track
EXTD=
EXTT0=
EXTT1=
EXTT2=
EXTT3=
EXTT4=
EXTT5=
EXTT6=
EXTT7=
EXTT8=
EXTT9=
EXTT10=
EXTT11=
EXTT12=
EXTT13=
PLAYORDER=
